<?xml version="1.0" encoding="UTF-8" standalone="no"?>
<!-- Created with Inkscape (http://www.inkscape.org/) -->

<svg
   xmlns:dc="http://purl.org/dc/elements/1.1/"
   xmlns:cc="http://creativecommons.org/ns#"
   xmlns:rdf="http://www.w3.org/1999/02/22-rdf-syntax-ns#"
   xmlns:svg="http://www.w3.org/2000/svg"
   xmlns="http://www.w3.org/2000/svg"
   xmlns:sodipodi="http://sodipodi.sourceforge.net/DTD/sodipodi-0.dtd"
   xmlns:inkscape="http://www.inkscape.org/namespaces/inkscape"
   width="210mm"
   height="297mm"
   viewBox="0 0 210 297"
   version="1.1"
   id="svg8"
   inkscape:version="0.92.3 (2405546, 2018-03-11)"
   sodipodi:docname="LOGO  20.svg">
  <defs
     id="defs2" />
  <sodipodi:namedview
     id="base"
     pagecolor="#ffffff"
     bordercolor="#666666"
     borderopacity="1.0"
     inkscape:pageopacity="0.0"
     inkscape:pageshadow="2"
     inkscape:zoom="0.7"
     inkscape:cx="594.69213"
     inkscape:cy="745.88441"
     inkscape:document-units="mm"
     inkscape:current-layer="layer1"
     showgrid="false"
     inkscape:window-width="1366"
     inkscape:window-height="705"
     inkscape:window-x="-8"
     inkscape:window-y="-8"
     inkscape:window-maximized="1" />
  <metadata
     id="metadata5">
    <rdf:RDF>
      <cc:Work
         rdf:about="">
        <dc:format>image/svg+xml</dc:format>
        <dc:type
           rdf:resource="http://purl.org/dc/dcmitype/StillImage" />
        <dc:title></dc:title>
      </cc:Work>
    </rdf:RDF>
  </metadata>
  <g
     inkscape:label="Capa 1"
     inkscape:groupmode="layer"
     id="layer1">
    <path
       style="opacity:1;fill:#ff6200;fill-opacity:1;fill-rule:nonzero;stroke:none;stroke-width:18.87915802;stroke-miterlimit:4;stroke-dasharray:none;stroke-opacity:1"
       d="m 166.3517,24.129618 c -1.10795,-0.004 -2.21641,0.10357 -3.30315,0.31936 -7.34446,1.47378 -13.19853,8.45056 -13.37283,15.9396 a 9.8067753,9.8067753 0 0 1 -16.09359,7.29361 c -12.84931,-10.74598 -30.65342,-15.30084 -47.084976,-12.04836 -4.491731,0.91858 -8.870434,2.38705 -13.006956,4.36407 a 9.8067753,9.8067753 0 0 1 -13.942819,-7.50858 l -0.193271,-1.40353 c -1.115655,-3.14264 -5.252264,-5.68972 -9.225281,-4.9351 -4.11477,0.78162 -6.72958,4.53942 -6.26886,7.88582 4e-5,3.4e-4 -5e-5,6.9e-4 0,0.001 0.34595,2.47998 2.32885,4.93455 5.24981,5.86785 a 9.8067753,9.8067753 0 0 1 4.627622,15.52205 c -9.604762,11.827724 -14.095812,27.668644 -12.132592,42.777744 0.22932,1.63478 0.52877,3.259588 0.90072,4.867918 a 9.8067753,9.8067753 0 0 1 -11.1988,11.87628 c -2.75867,-0.46957 -5.602027,-0.43481 -8.348837,0.0997 -11.44378,2.28464 -20.0384702,14.28274 -18.5151502,25.8532 1.52357,11.57365 12.9366002,20.94139 24.5850572,20.18068 9.923,-0.66126 18.96009,-8.39184 21.14961,-18.09295 a 9.8067753,9.8067753 0 0 1 15.173234,-5.88492 c 10.358361,7.22135 23.197283,10.81003 35.798839,10.00818 5.32779,-0.36726 10.60273,-1.49626 15.61352,-3.34347 a 9.8067753,9.8067753 0 0 1 13.17956,9.79165 c -0.13805,2.28605 -0.0597,4.58494 0.23254,6.85643 2.39805,18.14984 20.29959,32.83744 38.56871,31.63993 18.12048,-1.18786 33.82211,-17.82458 34.08474,-35.95956 l -1.36168,-10.34399 c -4.7077,-16.53424 -22.36396,-28.36267 -39.45134,-26.31054 A 9.8067753,9.8067753 0 0 1 151.45029,106.9013 c 1.50153,-5.027 2.27988,-10.265078 2.33732,-15.511198 l -2.0469,-15.54633 c -0.58028,-2.03813 -1.26203,-4.04755 -2.06809,-6.00739 a 9.8067753,9.8067753 0 0 1 11.9016,-13.117534 c 1.88185,0.56785 3.86452,0.79739 5.82652,0.67748 8.17583,-0.54779 15.25972,-7.98571 15.51843,-16.15561 l -0.67541,-5.12888 c -2.01577,-6.81482 -8.77456,-11.95592 -15.89154,-11.98222 z m -69.006116,28.41274 a 39.6875,39.6875 0 0 1 38.190426,29.415254 l 1.35238,10.27224 A 39.6875,39.6875 0 0 1 99.796604,131.83208 39.6875,39.6875 0 0 1 57.852908,97.409892 39.6875,39.6875 0 0 1 89.458214,53.304588 a 39.6875,39.6875 0 0 1 7.88737,-0.76223 z"
       id="path3713"
       inkscape:connector-curvature="0" />
    <path
       style="opacity:1;fill:#808080;fill-opacity:1;fill-rule:nonzero;stroke:none;stroke-width:12.9735384;stroke-miterlimit:4;stroke-dasharray:none;stroke-opacity:1"
       d="m 97.432224,65.351052 a 26.458332,26.458332 0 0 0 -5.2586,0.50849 26.458332,26.458332 0 0 0 -21.070028,29.40338 26.458332,26.458332 0 0 0 18.420578,21.788848 14.363094,15.497023 14.315751 0 0 8.45995,-9.25112 16.536458,16.536458 0 0 1 -0.67438,0.0801 16.536458,16.536458 0 0 1 -17.476449,-14.342788 16.536458,16.536458 0 0 1 13.169219,-18.37718 16.536458,16.536458 0 0 1 3.28611,-0.31781 16.536458,16.536458 0 0 1 15.912716,12.25662 l 0.56327,4.27984 v 21.883938 a 26.458332,26.458332 0 0 0 6.86522,-7.28431 V 77.576142 A 26.458332,26.458332 0 0 0 97.432224,65.351052 Z"
       id="path3754"
       inkscape:connector-curvature="0" />
  </g>
</svg>
