<?xml version="1.0" encoding="UTF-8" standalone="no"?>
<!-- Created with Inkscape (http://www.inkscape.org/) -->

<svg
   xmlns:dc="http://purl.org/dc/elements/1.1/"
   xmlns:cc="http://creativecommons.org/ns#"
   xmlns:rdf="http://www.w3.org/1999/02/22-rdf-syntax-ns#"
   xmlns:svg="http://www.w3.org/2000/svg"
   xmlns="http://www.w3.org/2000/svg"
   xmlns:sodipodi="http://sodipodi.sourceforge.net/DTD/sodipodi-0.dtd"
   xmlns:inkscape="http://www.inkscape.org/namespaces/inkscape"
   width="210mm"
   height="297mm"
   viewBox="0 0 210 297"
   version="1.1"
   id="svg8"
   inkscape:version="0.92.3 (2405546, 2018-03-11)"
   sodipodi:docname="avast.svg">
  <defs
     id="defs2" />
  <sodipodi:namedview
     id="base"
     pagecolor="#ffffff"
     bordercolor="#666666"
     borderopacity="1.0"
     inkscape:pageopacity="0.0"
     inkscape:pageshadow="2"
     inkscape:zoom="0.1767767"
     inkscape:cx="-1187.4853"
     inkscape:cy="711.88138"
     inkscape:document-units="mm"
     inkscape:current-layer="layer1"
     showgrid="false"
     inkscape:window-width="1366"
     inkscape:window-height="715"
     inkscape:window-x="-8"
     inkscape:window-y="-8"
     inkscape:window-maximized="1" />
  <metadata
     id="metadata5">
    <rdf:RDF>
      <cc:Work
         rdf:about="">
        <dc:format>image/svg+xml</dc:format>
        <dc:type
           rdf:resource="http://purl.org/dc/dcmitype/StillImage" />
        <dc:title></dc:title>
      </cc:Work>
    </rdf:RDF>
  </metadata>
  <g
     inkscape:label="Capa 1"
     inkscape:groupmode="layer"
     id="layer1">
    <g
       id="g47"
       transform="matrix(2.2539712,0,0,2.2539712,-113.06085,-148.39206)">
      <path
         style="fill:#fa9b09;stroke-width:0.26458335"
         d="m 116.01979,185.42519 c -4.87917,-1.85929 -8.20435,-5.89011 -9.30432,-11.27883 -1.11298,-5.45239 -3.74557,-8.79525 -8.266657,-10.49698 -1.555702,-0.58556 -2.163125,-0.66084 -5.332675,-0.66084 -5.854496,0 -9.636937,-1.08925 -13.558441,-3.90451 -1.119129,-0.80342 -2.391182,-1.56327 -2.826784,-1.68854 -1.111824,-0.31976 -2.930179,-0.28326 -4.153895,0.0834 -1.195464,0.35817 -3.223948,2.04279 -3.799171,3.15515 -1.255472,2.42781 -4.125576,4.20603 -6.789277,4.2064 -2.315253,2.6e-4 -4.165043,-0.81352 -5.722598,-2.51773 -3.009983,-3.29341 -2.928358,-7.60649 0.202962,-10.72462 1.968773,-1.96048 3.629852,-2.51266 6.787847,-2.25642 2.433029,0.19742 3.825836,-0.0771 5.43578,-1.0715 1.875261,-1.15825 2.08348,-1.66027 2.08348,-5.02337 0,-6.4129 1.620026,-10.6942 6.22861,-16.46058 0.615677,-0.77035 0.913717,-1.4197 0.910788,-1.98437 -0.006,-1.14979 -1.020466,-2.84632 -2.08408,-3.48516 -1.683346,-1.01108 -3.187626,-2.54726 -3.46214,-3.53555 -0.762796,-2.74621 0.272566,-5.16959 2.751664,-6.44059 1.457368,-0.74718 3.701453,-0.57361 5.098167,0.39432 1.524823,1.0567 1.994543,2.0582 2.215303,4.72326 0.20228,2.44197 0.711079,3.57188 1.919984,4.26378 0.406609,0.23272 2.451425,0.35089 6.926913,0.40029 3.4925,0.0386 7.123907,0.0883 8.069792,0.11045 2.189478,0.0514 4.114708,-0.78618 5.903008,-2.56809 1.60161,-1.59589 2.16326,-2.69803 2.82824,-5.54995 0.66401,-2.84774 1.29351,-4.08645 2.98629,-5.87632 1.94656,-2.05819 4.1547,-3.05425 7.09388,-3.19994 2.82475,-0.14001 4.5869,0.32889 6.80669,1.81121 1.80075,1.20249 3.26867,3.02606 4.0976,5.09038 0.43157,1.07475 0.55659,1.97188 0.56387,4.04639 0.009,2.55618 -0.0314,2.7479 -0.9841,4.67561 -1.05341,2.13144 -2.84694,4.02217 -4.7235,4.97953 -0.54338,0.27721 -2.15082,0.80615 -3.57207,1.17542 -3.04435,0.79099 -4.61311,1.71815 -6.01292,3.5537 -1.75661,2.30342 -1.94498,3.418 -1.85389,10.96982 0.0704,5.83454 0.14244,6.77756 0.62995,8.24252 0.67835,2.03846 1.72954,3.65677 3.37509,5.19599 1.89956,1.77681 3.34587,2.49758 6.50911,3.24378 3.40236,0.80262 4.66035,1.32557 6.80116,2.82725 1.47212,1.03264 3.51076,3.37354 4.3366,4.97959 0.88659,1.72418 1.50847,4.43574 1.51955,6.62569 0.0317,6.26823 -3.45647,11.54336 -9.10725,13.77263 -1.79204,0.70697 -2.18424,0.76091 -5.50147,0.75656 -2.97945,-0.004 -3.81324,-0.0966 -5.02709,-0.55921 z M 94.112498,155.55455 c 4.947045,-1.02407 9.163142,-4.9917 10.637262,-10.01038 0.5261,-1.7911 0.54498,-5.48604 0.0378,-7.39169 -1.20988,-4.5457 -4.93905,-8.46651 -9.347879,-9.82826 -2.475373,-0.76456 -6.223212,-0.7192 -8.55385,0.10353 -7.043938,2.48656 -10.878966,9.7516 -8.98883,17.02837 0.637408,2.45394 1.5538,4.00716 3.650324,6.18707 3.294783,3.42582 7.93422,4.87001 12.565203,3.91136 z m -6.535415,-5.75487 c -3.474246,-1.6618 -5.521044,-5.58517 -4.901059,-9.3945 0.708874,-4.35549 4.314087,-7.4112 8.737518,-7.40575 2.595502,0.003 4.462515,0.85448 6.311887,2.87799 1.83746,2.01047 2.287071,3.43916 2.287071,7.26737 0,2.56686 -0.08276,3.18321 -0.529166,3.9411 -0.712502,1.20964 -1.720046,1.91663 -2.805819,1.96884 l -0.898348,0.0432 -0.132292,-4.36563 c -0.0787,-2.59725 -0.257037,-4.57997 -0.44025,-4.89479 -1.029444,-1.76889 -3.162213,-2.71813 -4.979634,-2.21632 -2.130218,0.58819 -3.640426,3.09902 -3.081509,5.12325 0.604123,2.18796 2.166334,3.31078 4.606377,3.31078 1.926524,0 2.259309,0.3907 1.537656,1.80526 -1.026803,2.0127 -3.677529,2.91254 -5.712432,1.93921 z"
         id="path51"
         inkscape:connector-curvature="0" />
      <path
         style="fill:#404f5b;stroke-width:0.26458335"
         d="m 87.577083,149.79968 c -3.474246,-1.6618 -5.521044,-5.58517 -4.901059,-9.3945 0.708874,-4.35549 4.314087,-7.4112 8.737518,-7.40575 2.595502,0.003 4.462515,0.85448 6.311887,2.87799 1.83746,2.01047 2.287071,3.43916 2.287071,7.26737 0,2.56686 -0.08276,3.18321 -0.529166,3.9411 -0.712502,1.20964 -1.720046,1.91663 -2.805819,1.96884 l -0.898348,0.0432 -0.132292,-4.36563 c -0.0787,-2.59725 -0.257037,-4.57997 -0.44025,-4.89479 -1.029444,-1.76889 -3.162213,-2.71813 -4.979634,-2.21632 -2.130218,0.58819 -3.640426,3.09902 -3.081509,5.12325 0.604123,2.18796 2.166334,3.31078 4.606377,3.31078 1.926524,0 2.259309,0.3907 1.537656,1.80526 -1.026803,2.0127 -3.677529,2.91254 -5.712432,1.93921 z"
         id="path49"
         inkscape:connector-curvature="0" />
    </g>
  </g>
</svg>
