<?xml version="1.0" encoding="UTF-8" standalone="no"?>
<!-- Created with Inkscape (http://www.inkscape.org/) -->

<svg
   xmlns:dc="http://purl.org/dc/elements/1.1/"
   xmlns:cc="http://creativecommons.org/ns#"
   xmlns:rdf="http://www.w3.org/1999/02/22-rdf-syntax-ns#"
   xmlns:svg="http://www.w3.org/2000/svg"
   xmlns="http://www.w3.org/2000/svg"
   xmlns:sodipodi="http://sodipodi.sourceforge.net/DTD/sodipodi-0.dtd"
   xmlns:inkscape="http://www.inkscape.org/namespaces/inkscape"
   width="210mm"
   height="297mm"
   viewBox="0 0 210 297"
   version="1.1"
   id="svg8"
   inkscape:version="0.92.3 (2405546, 2018-03-11)"
   sodipodi:docname="exmouth fish co.svg">
  <defs
     id="defs2" />
  <sodipodi:namedview
     id="base"
     pagecolor="#ffffff"
     bordercolor="#666666"
     borderopacity="1.0"
     inkscape:pageopacity="0.0"
     inkscape:pageshadow="2"
     inkscape:zoom="0.7"
     inkscape:cx="448.91339"
     inkscape:cy="283.57516"
     inkscape:document-units="mm"
     inkscape:current-layer="layer1"
     showgrid="false"
     inkscape:window-width="1366"
     inkscape:window-height="715"
     inkscape:window-x="-8"
     inkscape:window-y="-8"
     inkscape:window-maximized="1" />
  <metadata
     id="metadata5">
    <rdf:RDF>
      <cc:Work
         rdf:about="">
        <dc:format>image/svg+xml</dc:format>
        <dc:type
           rdf:resource="http://purl.org/dc/dcmitype/StillImage" />
        <dc:title></dc:title>
      </cc:Work>
    </rdf:RDF>
  </metadata>
  <g
     inkscape:label="Capa 1"
     inkscape:groupmode="layer"
     id="layer1">
    <path
       style="fill:#0c2f51;stroke-width:0.26458335"
       d="m 21.880682,275.48341 c -0.06929,-0.18217 -0.0954,-19.08356 -0.05803,-42.0031 l 0.06795,-41.67187 h 69.982293 69.982285 v 41.93646 41.93646 l -69.924254,0.0666 c -55.800582,0.0532 -69.949707,-2.7e-4 -70.050242,-0.26459 z m 22.074511,-15.88784 c 1.762912,-0.33179 2.551744,-0.94329 1.968803,-1.52623 -0.21568,-0.21568 -0.44345,-0.21767 -0.836554,-0.007 -1.042861,0.55812 -2.133471,0.36445 -2.328733,-0.41353 -0.191715,-0.76386 0.387438,-1.41405 1.259555,-1.41405 0.578515,0 0.810005,-0.35243 0.596664,-0.90839 -0.125168,-0.32618 -0.373535,-0.38765 -1.052058,-0.26035 -0.775743,0.14552 -0.92754,0.0803 -1.198827,-0.51511 -0.466827,-1.02457 0.102507,-1.58682 1.426937,-1.40918 1.133444,0.15203 1.615488,-0.36096 0.956113,-1.0175 -0.297972,-0.29668 -0.71989,-0.31278 -2.2456,-0.0857 -2.44279,0.36362 -2.652844,0.49816 -2.279064,1.4598 0.160771,0.41362 0.431561,1.88313 0.601755,3.26558 0.450743,3.6613 0.15336,3.39232 3.131009,2.83192 z m 98.635817,-0.0898 c 0.21888,-0.57038 -0.25115,-1.28695 -0.84416,-1.28695 -0.25932,0 -0.59272,0.19217 -0.74088,0.42706 -0.40421,0.6408 -0.0306,1.29273 0.74088,1.29273 0.38369,0 0.75018,-0.18791 0.84416,-0.43284 z m -4.01916,-0.8623 c 0.88118,-0.48487 1.98756,-2.41812 1.97857,-3.45728 -0.0341,-3.93822 -5.44181,-5.29423 -7.37759,-1.84997 -2.08816,3.71539 1.63704,7.37727 5.39902,5.30725 z m -2.68367,-0.8193 c -2.63889,-1.06493 -1.31516,-6.04669 1.33861,-5.03773 1.82855,0.69521 1.81087,4.01364 -0.0266,4.99229 -0.6572,0.35002 -0.56514,0.34683 -1.312,0.0454 z m -87.293157,1.05611 c 0.184303,0 0.522176,-0.47625 0.750824,-1.05834 0.496887,-1.26494 1.082982,-1.35899 1.64892,-0.26458 0.350039,0.6769 0.562965,0.79375 1.446388,0.79375 1.519314,0 1.524703,-0.37613 0.02885,-2.01283 -1.597573,-1.748 -1.582103,-1.6097 -0.413769,-3.69888 0.973593,-1.74094 0.910246,-2.14821 -0.287377,-1.84763 -0.44174,0.11088 -0.786386,0.50166 -1.072023,1.21554 -0.519014,1.29714 -0.924372,1.32217 -1.845897,0.11399 -0.629777,-0.82568 -0.813766,-0.9171 -1.534822,-0.76263 -1.304745,0.2795 -1.301723,0.3395 0.09854,1.95584 1.558346,1.79883 1.58882,2.02371 0.52877,3.90202 -0.797057,1.41231 -0.825669,2.10204 -0.07525,1.81407 0.215464,-0.0827 0.542547,-0.15032 0.726853,-0.15032 z m 82.291467,-0.83623 c 1.3246,-0.60353 0.86446,-1.30746 -0.73201,-1.11983 -1.3432,0.15787 -1.43761,0.12756 -2.11667,-0.67944 -1.85442,-2.20386 0.21626,-5.34983 2.69061,-4.08783 0.53034,0.2705 1.05356,0.5346 1.1627,0.58691 0.38377,0.18391 0.19359,-1.47573 -0.20722,-1.80837 -1.26694,-1.05147 -4.36093,-0.41493 -5.45561,1.1224 -2.34687,3.29589 1.0322,7.63828 4.6582,5.98616 z m -74.272705,-0.17354 c 0.242358,-0.15393 0.259532,-0.44438 0.06614,-1.11868 -0.791821,-2.76092 -0.08934,-3.28288 1.289826,-0.95838 1.139698,1.9209 1.424199,1.88612 2.187987,-0.26744 0.842246,-2.37478 1.174721,-2.39378 1.4027,-0.0802 0.185039,1.87786 0.185039,1.87786 1.02739,1.79625 0.66602,-0.0645 0.82867,-0.19237 0.776989,-0.61076 -0.03595,-0.29104 -0.143307,-1.92586 -0.238573,-3.63293 -0.150008,-2.68793 -0.238162,-3.12438 -0.657984,-3.25763 -1.017206,-0.32284 -1.878931,0.45118 -2.464763,2.21394 -0.743352,2.23672 -0.950704,2.23489 -2.230726,-0.0197 -0.847553,-1.49288 -0.88564,-1.52135 -2.034926,-1.52135 -1.331193,0 -1.321353,-0.0272 -0.910498,2.51354 0.141195,0.87313 0.279681,2.30188 0.30775,3.175 0.06602,2.05387 0.400111,2.4534 1.478683,1.76836 z m 65.089745,-2.6944 c 0.0505,-1.09141 0.19605,-2.63922 0.32351,-3.43958 0.25448,-1.59799 -0.0992,-2.21549 -1.18035,-2.06051 -0.4311,0.0618 -0.54611,0.30878 -0.61087,1.31182 -0.16769,2.59719 -3.09522,2.55024 -3.09522,-0.0496 0,-3.18244 -1.81406,-2.07608 -2.01499,1.22891 -0.0896,1.47375 -0.24317,3.1074 -0.34128,3.63033 -0.16193,0.86318 -0.1165,0.96632 0.49305,1.11931 1.13988,0.28609 1.43093,-0.007 1.51818,-1.52841 0.0805,-1.40286 0.0805,-1.40286 1.22449,-1.48517 1.65203,-0.11886 1.98697,0.26052 1.76915,2.00391 -0.17744,1.42017 -0.17744,1.42017 0.82256,1.33678 1,-0.0834 1,-0.0834 1.09177,-2.06775 z m -51.601366,1.41024 c 1.616416,-0.76704 2.463564,-2.8571 1.942452,-4.79236 -1.090264,-4.04893 -7.147055,-3.35406 -7.623691,0.87464 -0.36094,3.20223 2.716649,5.32451 5.681239,3.91772 z m -2.637089,-1.16685 c -1.239814,-0.72213 -1.635673,-3.12991 -0.708396,-4.30875 1.012529,-1.28722 2.841382,-0.73173 3.426341,1.04072 0.767165,2.32452 -0.898755,4.32761 -2.717945,3.26803 z m 45.480355,0.71694 c 0.55507,-0.47745 0.72913,-0.86443 0.72913,-1.62103 0,-1.01617 -0.1619,-1.2148 -2.39107,-2.93359 -0.47854,-0.36898 -0.65939,-0.69744 -0.54628,-0.99219 0.19261,-0.50193 1.25363,-0.58974 1.70248,-0.14089 0.3821,0.3821 1.12903,0.10582 1.12903,-0.4176 0,-0.71654 -1.22876,-1.28734 -2.42566,-1.1268 -1.42363,0.19095 -2.17809,0.9527 -2.17809,2.19914 0,0.99506 0.0755,1.08794 2.25616,2.77707 1.4681,1.13716 -0.0457,2.21049 -1.59108,1.1281 -0.51725,-0.3623 -0.65484,-0.37298 -0.85229,-0.0662 -0.99088,1.53983 2.5772,2.562 4.16767,1.19394 z m -34.016769,-0.41081 c 0.825789,-0.82579 1.229757,-6.58625 0.493776,-7.04111 -1.121973,-0.69342 -1.457655,0.0303 -1.35096,2.91268 0.114192,3.0848 -0.06251,3.57891 -1.279834,3.57891 -1.169413,0 -1.442064,-0.60904 -1.5875,-3.5461 -0.137097,-2.76863 -0.569894,-3.41397 -1.748954,-2.60786 -0.393581,0.26909 -0.01077,5.62079 0.455464,6.36734 0.854909,1.36893 3.788696,1.56545 5.018008,0.33614 z m 28.156959,0.51013 c 0.0895,-0.14479 0.22354,-1.60331 0.2979,-3.24114 0.0744,-1.63784 0.157,-3.20462 0.18364,-3.48173 0.0509,-0.52981 -1.09736,-1.04483 -1.60913,-0.72169 -0.36515,0.23055 -0.55704,7.40352 -0.20203,7.55214 0.50421,0.21108 1.16576,0.15755 1.32962,-0.10758 z m -21.82731,-3.30861 c 0.132291,-3.175 0.132291,-3.175 1.186548,-3.175 1.277805,0 1.653783,-0.7646 0.577246,-1.1739 -0.853665,-0.32456 -5.804924,-0.0401 -6.058971,0.34808 -0.35591,0.54385 -0.03014,0.82582 0.9541,0.82582 1.327878,0 1.480225,0.35515 1.484943,3.46163 0.0044,2.91559 0.06346,3.082 1.052483,2.96666 0.66866,-0.078 0.671891,-0.0911 0.803651,-3.25329 z m 10.181024,2.97656 c 0.463071,-1.38913 0.241432,-7.31149 -0.277331,-7.41054 -1.147035,-0.21901 -1.561587,0.16401 -1.475029,1.36284 0.09884,1.36895 -0.290364,1.88052 -1.430705,1.88052 -1.294561,0 -1.799542,-0.63817 -1.608413,-2.03263 0.156581,-1.14237 0.156581,-1.14237 -0.89848,-1.14237 -1.055063,0 -1.055063,0 -0.94461,3.63802 0.110453,3.63802 0.110453,3.63802 0.993976,3.63802 0.883526,0 0.883526,0 0.800198,-1.21012 -0.103785,-1.50724 0.297818,-1.89427 1.849713,-1.78261 1.144032,0.0823 1.144032,0.0823 1.222875,1.58671 0.06033,1.1511 0.1846,1.53224 0.529167,1.62295 0.829709,0.21844 1.127649,0.18217 1.238639,-0.15079 z m 6.223146,-1.25677 c 0,-1.5875 0,-1.5875 1.07673,-1.5875 1.483,0 1.46755,-1.11064 -0.0184,-1.32291 -0.75702,-0.10815 -0.94055,-0.25716 -1.00556,-0.8164 -0.1155,-0.99355 0.52086,-1.42877 1.5596,-1.06667 1.18647,0.41361 2.04105,-0.68562 0.87953,-1.13134 -3.07133,-1.17857 -4.343998,-0.15332 -4.343998,3.49947 0,3.98707 0.0071,4.01285 1.102428,4.01285 0.73986,0 0.74966,-0.0207 0.74966,-1.5875 z M 94.451623,241.5282 c 5.013023,-1.03547 9.268677,-4.28744 11.580227,-8.84908 3.02623,-5.97198 0.36272,-7.16986 -5.92902,-2.66649 -3.975053,2.84519 -7.746136,4.46313 -8.651431,3.7118 -0.969524,-0.80464 3.221119,-6.51015 5.642636,-7.68239 1.077659,-0.52169 1.169943,-0.62932 0.752478,-0.87766 -3.395856,-2.02015 -6.502786,-5.76834 -6.502786,-7.84494 0,-1.40158 4.394041,0.27069 8.598958,3.27256 6.757555,4.8242 9.201935,3.50894 5.751315,-3.09462 -5.37561,-10.28747 -20.322496,-11.53237 -27.437973,-2.28528 -9.273691,12.05186 1.387308,29.37484 16.195596,26.3161 z"
       id="path139"
       inkscape:connector-curvature="0" />
  </g>
</svg>
