<?xml version="1.0" encoding="UTF-8" standalone="no"?>
<!-- Created with Inkscape (http://www.inkscape.org/) -->

<svg
   xmlns:dc="http://purl.org/dc/elements/1.1/"
   xmlns:cc="http://creativecommons.org/ns#"
   xmlns:rdf="http://www.w3.org/1999/02/22-rdf-syntax-ns#"
   xmlns:svg="http://www.w3.org/2000/svg"
   xmlns="http://www.w3.org/2000/svg"
   xmlns:sodipodi="http://sodipodi.sourceforge.net/DTD/sodipodi-0.dtd"
   xmlns:inkscape="http://www.inkscape.org/namespaces/inkscape"
   width="210mm"
   height="297mm"
   viewBox="0 0 210 297"
   version="1.1"
   id="svg8"
   inkscape:version="0.92.3 (2405546, 2018-03-11)"
   sodipodi:docname="mutewatch.svg">
  <defs
     id="defs2" />
  <sodipodi:namedview
     id="base"
     pagecolor="#ffffff"
     bordercolor="#666666"
     borderopacity="1.0"
     inkscape:pageopacity="0.0"
     inkscape:pageshadow="2"
     inkscape:zoom="0.35355339"
     inkscape:cx="1496.9861"
     inkscape:cy="598.38359"
     inkscape:document-units="mm"
     inkscape:current-layer="layer1"
     showgrid="false"
     inkscape:window-width="1366"
     inkscape:window-height="715"
     inkscape:window-x="-8"
     inkscape:window-y="-8"
     inkscape:window-maximized="1" />
  <metadata
     id="metadata5">
    <rdf:RDF>
      <cc:Work
         rdf:about="">
        <dc:format>image/svg+xml</dc:format>
        <dc:type
           rdf:resource="http://purl.org/dc/dcmitype/StillImage" />
        <dc:title></dc:title>
      </cc:Work>
    </rdf:RDF>
  </metadata>
  <g
     inkscape:label="Capa 1"
     inkscape:groupmode="layer"
     id="layer1">
    <path
       style="fill:#0d0d0d;stroke-width:0.26458335"
       d="m 56.725106,176.76737 c -1.27147,-0.5774 -2.30659,-1.83779 -2.73508,-3.33028 -0.19833,-0.69083 -0.27619,-2.98772 -0.22423,-6.61458 l 0.0796,-5.55625 h 1.45521 1.45521 l 0.13229,5.55625 c 0.14269,5.99301 0.24369,6.44883 1.58221,7.14101 1.54306,0.79795 3.30722,0.38867 4.34541,-1.0081 0.50949,-0.68546 0.56545,-1.19199 0.68697,-6.21771 l 0.13229,-5.47145 h 1.45521 1.45521 v 7.8052 7.80521 l -1.39203,0.0801 c -1.06607,0.0613 -1.42893,-0.0161 -1.54966,-0.33073 -0.2074,-0.54048 -0.60015,-0.51828 -1.99036,0.11255 -1.45707,0.66116 -3.46963,0.67302 -4.88825,0.0288 z m 25.5613,0.25897 c -2.00904,-0.61113 -3.36595,-1.83799 -4.26236,-3.85384 -0.46787,-1.05217 -0.59173,-1.83732 -0.60518,-3.83645 -0.0266,-3.95075 1.13114,-6.41401 3.63807,-7.74061 1.5522,-0.82138 4.61433,-0.82138 6.16653,0 2.23981,1.18525 3.53132,3.58672 3.53132,6.56626 0,1.47894 -0.0591,1.65762 -0.59531,1.80133 -0.32742,0.0877 -2.58259,0.16117 -5.01147,0.16316 -2.42889,0.002 -4.47825,0.10408 -4.55414,0.22688 -0.24371,0.39433 0.37145,2.11752 1.03927,2.91117 1.19486,1.42001 4.02526,1.63403 5.84463,0.44192 0.86657,-0.56779 1.80447,-0.34653 2.40297,0.5669 0.45077,0.68796 0.44593,0.70333 -0.45967,1.45999 -1.56187,1.30499 -5.02967,1.9336 -7.13466,1.29329 z m 5.13346,-10.37348 c -0.0615,-2.14326 -2.16551,-3.55522 -4.33104,-2.90641 -1.10375,0.3307 -2.18961,1.50103 -2.473,2.66541 -0.29296,1.20364 0.1476,1.35881 3.62942,1.27837 l 3.20225,-0.074 z m 29.709604,10.23736 c -1.31845,-0.47022 -1.99814,-1.09778 -2.59373,-2.3948 -1.15167,-2.50798 -0.0336,-5.29626 2.5451,-6.34727 0.29104,-0.11862 1.89838,-0.28682 3.57187,-0.37378 l 3.04271,-0.15811 -0.016,-1.24667 c -0.0195,-1.51745 -0.5711,-2.21355 -2.0751,-2.61853 -1.24878,-0.33626 -3.60809,0.0654 -4.13856,0.70459 -0.471,0.56753 -0.8619,0.47171 -1.71706,-0.42089 -0.93296,-0.9738 -0.76243,-1.39539 0.9593,-2.37163 1.03213,-0.58522 1.47153,-0.66079 3.81242,-0.65565 2.20929,0.005 2.82723,0.10185 3.7453,0.58793 2.50745,1.32759 2.78591,2.32271 2.68424,9.59272 l -0.0795,5.68854 -1.31415,0.083 c -0.99965,0.0631 -1.39301,-0.0249 -1.64365,-0.36762 -0.30802,-0.42125 -0.4152,-0.41373 -1.64531,0.11545 -1.5165,0.65238 -3.612,0.72691 -5.13785,0.18273 z m 5.10706,-2.72594 c 1.13896,-0.57124 1.6177,-1.46238 1.52778,-2.84386 l -0.0689,-1.05833 -2.5821,-0.0758 c -2.4484,-0.0718 -2.61624,-0.0416 -3.24115,0.58329 -1.09268,1.09267 -0.68787,3.01213 0.75833,3.59574 0.94664,0.38201 2.63068,0.28811 3.60603,-0.20108 z m 20.37489,2.86206 c -1.9976,-0.60765 -3.34754,-1.82215 -4.28359,-3.85384 -0.52406,-1.13748 -0.607,-1.73086 -0.5917,-4.23333 0.0197,-3.22643 0.30907,-4.19395 1.74253,-5.82657 1.10387,-1.25724 2.52334,-1.95083 4.38798,-2.14408 1.82242,-0.18887 3.57103,0.22549 4.76576,1.12934 1.05186,0.79576 1.07049,1.11659 0.11781,2.02931 -0.88811,0.85087 -1.10336,0.86853 -2.22808,0.18278 -1.68717,-1.02867 -4.08414,-0.41495 -5.07419,1.2992 -0.80421,1.39239 -0.91506,4.85456 -0.2067,6.45593 0.74446,1.68298 1.86423,2.35954 3.68289,2.2252 0.79546,-0.0587 1.59266,-0.29026 1.87292,-0.54389 0.26837,-0.24288 0.65066,-0.44159 0.84952,-0.44159 0.46224,0 1.84573,1.3161 1.84573,1.75582 0,0.44389 -1.49573,1.53566 -2.61917,1.9118 -1.00149,0.33532 -3.24339,0.36368 -4.26171,0.0539 z M 28.967387,176.68877 c -0.07346,-0.19143 -0.101892,-3.73981 -0.06319,-7.88528 l 0.07037,-7.53723 1.309228,-0.0828 c 1.085586,-0.0686 1.382178,0.0139 1.736293,0.48339 l 0.427066,0.56617 1.041831,-0.61502 c 0.805633,-0.4756 1.436762,-0.61518 2.783793,-0.61568 1.505534,-5.3e-4 1.929869,0.11605 3.126435,0.85924 0.761461,0.47294 1.503569,0.85989 1.64913,0.85989 0.145561,0 0.643666,-0.28596 1.106899,-0.63547 2.348211,-1.77174 5.721304,-1.56655 7.759904,0.47204 1.55512,1.55513 1.70431,2.36625 1.62057,8.8108 l -0.0716,5.50784 h -1.45521 -1.4552 l -0.1323,-5.55625 c -0.11258,-4.72865 -0.20181,-5.65855 -0.599018,-6.24307 -1.216562,-1.79025 -3.957924,-1.73367 -5.328598,0.10998 -0.509495,0.6853 -0.565447,1.19172 -0.686964,6.21771 l -0.132291,5.47163 h -1.455179 -1.455208 l -0.132292,-5.55625 c -0.142691,-5.99301 -0.243686,-6.44884 -1.582204,-7.14101 -1.54296,-0.7979 -3.307085,-0.38871 -4.345416,1.00792 -0.509495,0.6853 -0.565447,1.19172 -0.686963,6.21771 l -0.132292,5.47163 -1.392021,0.0801 c -0.966705,0.0556 -1.432829,-0.0263 -1.525582,-0.26798 z m 43.398859,0.0176 c -0.88011,-0.49706 -1.75891,-1.37905 -2.07115,-2.07868 -0.16435,-0.36825 -0.35715,-2.88476 -0.43494,-5.67715 l -0.13975,-5.01569 -0.63641,-0.1497 c -1.42348,-0.33483 -1.44485,-2.19527 -0.0285,-2.47854 l 0.79718,-0.15944 v -2.11397 c 0,-2.32659 0.22436,-2.66176 1.78177,-2.66176 1.13619,0 1.39323,0.43976 1.39323,2.3836 0,2.15876 0.29939,2.59477 1.85208,2.69722 l 1.19063,0.0786 v 1.05833 1.05834 l -1.2357,0.0798 c -0.67963,0.0439 -1.37235,0.24445 -1.53938,0.44571 -0.20946,0.25239 -0.27758,1.72319 -0.21952,4.74012 0.0945,4.91151 0.17553,5.13305 1.98444,5.42708 0.99585,0.16187 1.01016,0.181 1.01016,1.35033 v 1.18614 l -1.5875,0.0643 c -0.87313,0.0354 -1.82563,-0.0702 -2.11667,-0.23457 z m 23.45624,-0.16045 c -0.38413,-0.73321 -4.34033,-13.59818 -4.47502,-14.55208 l -0.12141,-0.8599 h 1.46854 c 0.8077,0 1.54189,0.11869 1.63154,0.26374 0.0897,0.14505 0.69393,2.19888 1.34284,4.56406 1.33057,4.8497 1.59794,5.5855 1.95047,5.36763 0.1363,-0.0842 0.92281,-2.20431 1.7478,-4.71128 0.824984,-2.50695 1.610124,-4.76646 1.744744,-5.02113 0.17634,-0.33359 0.56975,-0.46302 1.40746,-0.46302 h 1.1627 l 1.67226,5.04979 c 0.91974,2.77738 1.79132,5.06934 1.93684,5.09323 0.3155,0.0518 0.85392,-1.51146 1.96641,-5.70938 1.2453,-4.69902 1.07926,-4.43364 2.77393,-4.43364 0.79538,0 1.50669,0.098 1.5807,0.21773 0.13684,0.2214 -4.29474,14.72123 -4.68425,15.32654 -0.11704,0.18191 -0.72699,0.33073 -1.35542,0.33073 -0.62844,0 -1.26029,-0.14882 -1.40412,-0.33073 -0.14382,-0.1819 -0.93422,-2.35479 -1.75645,-4.82864 -0.82222,-2.47386 -1.59283,-4.65238 -1.71248,-4.84117 -0.36368,-0.57387 -0.68297,0.0745 -1.99322,4.04742 -2.121304,6.43224 -1.851724,5.95312 -3.349554,5.95312 -0.96141,0 -1.35376,-0.1184 -1.53431,-0.46302 z m 36.467764,-0.0275 c -0.50705,-0.26981 -1.18785,-0.95442 -1.51287,-1.52135 -0.55138,-0.96176 -0.59125,-1.35202 -0.59532,-5.82705 -0.005,-5.00725 -0.0512,-5.21915 -1.19497,-5.4315 -0.42388,-0.0787 -0.52917,-0.30738 -0.52917,-1.14933 0,-0.84195 0.10529,-1.07063 0.52917,-1.14932 1.00799,-0.18714 1.19062,-0.57588 1.19062,-2.53432 0,-2.18592 0.2241,-2.53407 1.63111,-2.53407 1.28579,0 1.54389,0.48282 1.54389,2.88799 0,2.03623 -0.0222,2.0113 1.95584,2.19884 0.87734,0.0832 1.26921,0.81157 0.92869,1.72619 -0.17108,0.45952 -0.42989,0.59532 -1.13457,0.59532 -1.8044,0 -1.74996,-0.15159 -1.74996,4.87253 0,5.12481 0.0883,5.41485 1.7301,5.68172 1.09101,0.17733 1.46699,0.81302 1.23001,2.0796 -0.0999,0.53396 -0.26541,0.59531 -1.60602,0.59531 -0.94756,0 -1.83208,-0.17956 -2.41655,-0.49056 z m 19.2424,0.32606 c -0.10355,-0.10355 -0.18827,-5.02618 -0.18827,-10.93918 0,-8.00903 0.081,-10.83187 0.3175,-11.0684 0.17463,-0.17462 0.70067,-0.3175 1.16898,-0.3175 1.69427,0 1.68852,-0.0127 1.68852,3.74078 0,3.82926 0.10959,4.04662 1.62976,3.23259 0.58332,-0.31235 1.46847,-0.47558 2.60357,-0.4801 2.34342,-0.009 3.81069,0.8024 4.74825,2.62687 0.66566,1.29536 0.67571,1.40361 0.67571,7.27604 v 5.96111 h -1.45521 -1.4552 l -0.1323,-5.47163 c -0.12151,-5.02599 -0.17747,-5.53241 -0.68696,-6.21771 -1.39904,-1.8818 -3.84189,-1.88172 -5.24066,1.8e-4 -0.50948,0.68546 -0.56544,1.19198 -0.68696,6.21771 l -0.13229,5.47145 -1.33308,0.078 c -0.7332,0.0429 -1.41781,-0.007 -1.52136,-0.11024 z M 41.034871,146.56042 c -2.247567,-0.73349 -4.430647,-2.83922 -5.270394,-5.08365 -0.747582,-1.99809 -0.73074,-3.79821 0.07924,-8.46876 0.358287,-2.06598 1.256696,-7.32821 1.996464,-11.69384 0.739768,-4.36562 1.810403,-10.67593 2.379188,-14.02291 0.568786,-3.34698 1.640348,-9.657291 2.38125,-14.022921 4.572932,-26.94512 4.458434,-26.29849 4.88228,-27.57316 1.454507,-4.37428 6.356017,-6.85219 10.890527,-5.50559 2.8283,0.83992 4.90874,2.87276 5.89997,5.765 0.26099,0.76153 1.10245,3.70631 1.86992,6.54396 0.76747,2.83766 2.13845,7.89781 3.04663,11.24479 0.90818,3.34698 2.39966,8.84648 3.31439,12.22112 1.76456,6.509791 1.93382,6.983511 2.34456,6.562081 0.14065,-0.1443 1.38968,-4.131901 2.77563,-8.861321 1.38595,-4.72943 3.30701,-11.27787 4.26901,-14.55209 0.96201,-3.27421 2.04244,-6.45534 2.40097,-7.06916 0.69228,-1.18524 2.3035,-2.43713 3.78779,-2.94304 2.06236,-0.70294 4.94424,-0.15795 6.66496,1.26041 1.33594,1.10119 2.17209,2.82907 4.07055,8.4116 0.92966,2.73372 3.186374,9.3694 5.014914,14.74595 1.82855,5.37656 3.43369,9.884601 3.56697,10.017881 0.59731,0.59731 0.52563,0.79294 7.30075,-19.925721 0.97552,-2.98318 2.05577,-5.79872 2.40057,-6.25677 0.7791,-1.035 2.60799,-1.94531 3.90832,-1.94531 1.83911,0 3.75114,1.1377 4.57559,2.72258 0.34391,0.66112 3.58407,9.15817 7.68903,20.16387 1.51519,4.062351 1.83646,4.719781 2.19738,4.496721 0.11361,-0.0702 1.89574,-4.348611 3.96029,-9.507531 2.48321,-6.2051 3.98253,-9.60867 4.42973,-10.05588 1.71341,-1.7134 4.8372,-0.37946 4.8372,2.06562 0,0.35818 -2.46052,6.82324 -5.46782,14.36678 -6.27124,15.730851 -6.25426,15.700741 -8.8547,15.698931 -1.55593,-0.001 -2.83803,-0.60225 -3.49765,-1.64003 -0.21253,-0.33437 -2.01247,-4.95372 -3.99986,-10.26523 -1.9874,-5.311511 -3.79627,-9.938941 -4.01972,-10.283171 -0.3402,-0.52411 -0.46151,-0.56713 -0.74603,-0.26459 -0.28236,0.30026 -3.8044,10.827401 -8.48611,25.364421 -1.24891,3.87797 -1.70146,4.75618 -3.04232,5.90391 -2.47364,2.11734 -6.16695,1.8181 -8.35782,-0.67716 -0.96187,-1.09551 -0.8877,-0.9093 -3.768054,-9.46008 -4.09819,-12.16608 -5.8536,-17.311471 -6.1155,-17.925521 -0.46955,-1.10088 -1.00829,-0.69101 -1.56494,1.19063 -0.29059,0.98226 -1.41597,4.822031 -2.50085,8.532811 -1.08487,3.71078 -3.18666,10.85453 -4.67062,15.875 -1.48398,5.02047 -2.80549,9.49869 -2.93671,9.95161 -0.90298,3.11681 -4.9341,5.51646 -8.39509,4.99745 -2.35393,-0.35299 -4.8587,-2.15027 -5.83117,-4.18411 -0.29129,-0.60921 -2.01984,-6.65344 -3.84123,-13.43161 -3.59675,-13.38503 -3.76596,-13.94348 -4.1154,-13.58216 -0.12847,0.13284 -0.53629,2.02746 -0.90628,4.21028 -0.36999,2.18281 -1.1579,6.82625 -1.75092,10.31875 -0.59301,3.4925 -1.61325,9.50515 -2.26719,13.36145 -0.65393,3.85631 -1.43949,7.64221 -1.74567,8.41312 -1.6106,4.05512 -6.451595,6.20783 -10.782021,4.79459 z M 155.70874,86.941129 c -0.35127,-0.35127 -0.71274,-0.93376 -0.80326,-1.29442 -0.17632,-0.70254 0.48951,-2.30024 0.95861,-2.30024 0.15004,0 0.0874,0.26461 -0.13908,0.58803 -0.79724,1.13822 -0.28482,2.86224 1.00549,3.38294 0.47042,0.18984 0.48608,0.23168 0.092,0.24559 -0.26128,0.009 -0.76245,-0.27063 -1.11372,-0.6219 z m 3.04397,-0.003 c 0,-0.19814 0.1786,-0.42879 0.39688,-0.51256 0.53695,-0.20605 0.51652,-1.857 -0.0334,-2.69625 -0.39865,-0.60842 -0.39811,-0.64432 0.007,-0.48873 1.2607,0.48377 1.28584,3.42208 0.0334,3.90269 -0.24061,0.0923 -0.40423,0.009 -0.40423,-0.20515 z m -2.11666,-1.83969 c 0,-1.0998 0.0613,-1.22302 0.60854,-1.22302 0.81784,0 1.24354,0.47709 1.24354,1.39367 0,0.64418 -0.0818,0.73271 -0.54186,0.58668 -0.29803,-0.0946 -0.71475,-0.0285 -0.92605,0.14686 -0.32642,0.2709 -0.38417,0.13498 -0.38417,-0.90419 z"
       id="path21"
       inkscape:connector-curvature="0" />
  </g>
</svg>
