<?xml version="1.0" encoding="UTF-8" standalone="no"?>
<!-- Created with Inkscape (http://www.inkscape.org/) -->

<svg
   xmlns:dc="http://purl.org/dc/elements/1.1/"
   xmlns:cc="http://creativecommons.org/ns#"
   xmlns:rdf="http://www.w3.org/1999/02/22-rdf-syntax-ns#"
   xmlns:svg="http://www.w3.org/2000/svg"
   xmlns="http://www.w3.org/2000/svg"
   xmlns:xlink="http://www.w3.org/1999/xlink"
   xmlns:sodipodi="http://sodipodi.sourceforge.net/DTD/sodipodi-0.dtd"
   xmlns:inkscape="http://www.inkscape.org/namespaces/inkscape"
   version="1.1"
   id="svg854"
   width="500"
   height="138"
   viewBox="0 0 500 138"
   sodipodi:docname="Logo 18.svg"
   inkscape:version="0.92.3 (2405546, 2018-03-11)">
  <metadata
     id="metadata860">
    <rdf:RDF>
      <cc:Work
         rdf:about="">
        <dc:format>image/svg+xml</dc:format>
        <dc:type
           rdf:resource="http://purl.org/dc/dcmitype/StillImage" />
        <dc:title></dc:title>
      </cc:Work>
    </rdf:RDF>
  </metadata>
  <defs
     id="defs858" />
  <sodipodi:namedview
     pagecolor="#ffffff"
     bordercolor="#666666"
     borderopacity="1"
     objecttolerance="10"
     gridtolerance="10"
     guidetolerance="10"
     inkscape:pageopacity="0"
     inkscape:pageshadow="2"
     inkscape:window-width="1366"
     inkscape:window-height="677"
     id="namedview856"
     showgrid="false"
     inkscape:zoom="1.92"
     inkscape:cx="13.201406"
     inkscape:cy="69"
     inkscape:window-x="-8"
     inkscape:window-y="-8"
     inkscape:window-maximized="1"
     inkscape:current-layer="svg854" />
  <path
     style="fill:none;stroke:#000000;stroke-width:1px;stroke-linecap:butt;stroke-linejoin:miter;stroke-opacity:1"
     d="m 111.76471,61.755656 0.67873,2.941177 0.45249,3.16742 0.22624,2.941177 v 2.262443 l -0.90498,3.167421"
     id="path868"
     inkscape:connector-curvature="0" />
  <path
     style="opacity:1;fill:#002255;stroke-width:1.79256296"
     d="M 89.188721,-1.3875265 C 43.558877,-0.95375793 5.759716,-0.28368033 5.1905067,0.10154067 3.7658678,1.065653 -1.4626848,141.78893 -0.10474657,142.61819 0.49554528,142.98464 49.954797,142.81847 109.80494,142.24892 l 108.81866,-1.03554 1.39915,-16.27533 c 0.76943,-8.95143 1.98205,-39.91365 2.69431,-68.804933 0.71226,-28.891281 1.77518,-53.9479014 2.36213,-55.68137983 1.06244,-3.13822987 0.95047,-3.15065487 -25.93005,-2.88985587 -14.84846,0.1440706 -64.33069,0.6168418 -109.960419,1.0505922 z"
     id="path870"
     inkscape:connector-curvature="0" />
  <path
     style="opacity:1;fill:#ffffff;stroke-width:0.43688133"
     d="m 103.88708,79.071757 c -1.34198,-0.32915 -3.1982,-0.908414 -4.124948,-1.287269 C 96.599087,76.491473 89.239783,71.445992 87.064649,69.079202 84.594557,66.391463 79.94618,57.974366 78.797133,54.108695 c -1.03382,-3.478001 -0.673516,-13.462603 0.666301,-18.464237 2.193183,-8.187305 8.920939,-16.568073 16.881981,-21.029876 1.097975,-0.615367 4.185725,-1.828971 6.861665,-2.696898 l 4.86534,-1.578048 6.89078,0.210945 c 7.82245,0.239465 9.54417,0.63467 15.98514,3.66923 3.39245,1.5983 4.87109,2.621251 7.58103,5.244718 5.69762,5.515811 9.4769,11.136462 10.78857,16.045062 0.93061,3.482567 0.50885,3.904405 -3.66372,3.664331 -4.05474,-0.233293 -4.87987,-0.616255 -10.87024,-5.04519 -6.93413,-5.126679 -12.69553,-7.60069 -18.80806,-8.07638 l -3.2163,-0.2503 v 1.154835 c 0,1.349123 1.23207,3.824331 3.55596,7.143886 3.95507,5.649616 7.52412,8.89123 11.33328,10.293516 l 2.10649,0.775478 -3.13717,1.598784 c -3.53311,1.80056 -6.36021,4.312869 -9.1851,8.162385 -2.3603,3.216407 -4.67346,7.572975 -4.67346,8.801915 0,0.799098 0.25572,0.914815 2.02169,0.914815 1.11193,0 2.95853,-0.210227 4.10355,-0.467174 3.4114,-0.765518 12.40103,-5.323145 17.38701,-8.814986 4.82614,-3.379897 8.33492,-5.34593 9.54091,-5.34593 0.95167,0 4.21153,1.645565 4.21153,2.12597 0,0.21314 -0.8884,2.544826 -1.97422,5.181527 -2.13128,5.175375 -6.09867,11.404901 -8.27848,12.998752 -0.74508,0.544789 -2.12344,1.766433 -3.06303,2.714754 -1.00725,1.016629 -3.64629,2.693987 -6.43059,4.08726 l -4.72226,2.363043 -9.61435,0.08967 c -7.01122,0.06534 -10.27498,-0.07236 -12.0543,-0.508794 z"
     id="path878"
     inkscape:connector-curvature="0" />
  <path
     style="opacity:1;fill:none;stroke-width:7.13183117"
     d="M 0.52715966 126.53211 A 73.4375 20.572918 0 0 1 73.958336 106.22918 A 73.4375 20.572918 0 0 1 147.39584 126.80209 L 147.39584 126.80209 A 73.4375 20.572918 0 0 1 73.958336 147.37501 A 73.4375 20.572918 0 0 1 0.52083588 126.80209 A 73.4375 20.572918 0 0 1 0.52715966 126.53211 "
     id="path882" />
  <flowRoot
     xml:space="preserve"
     id="flowRoot884"
     style="fill:black;fill-opacity:1;stroke:none;font-family:sans-serif;font-style:normal;font-weight:normal;font-size:53.33333333px;line-height:1.25;letter-spacing:0px;word-spacing:0px;-inkscape-font-specification:'sans-serif, Normal';font-stretch:normal;font-variant:normal;text-anchor:start;text-align:start;writing-mode:lr;font-variant-ligatures:normal;font-variant-caps:normal;font-variant-numeric:normal;font-feature-settings:normal;"><flowRegion
       id="flowRegion886"
       style="-inkscape-font-specification:'sans-serif, Normal';font-family:sans-serif;font-weight:normal;font-style:normal;font-stretch:normal;font-variant:normal;font-size:53.33333333px;text-anchor:start;text-align:start;writing-mode:lr;font-variant-ligatures:normal;font-variant-caps:normal;font-variant-numeric:normal;font-feature-settings:normal;"><rect
         id="rect888"
         width="187.50002"
         height="47.916664"
         x="9.895833"
         y="22.895834"
         style="font-style:normal;font-variant:normal;font-weight:normal;font-stretch:normal;font-size:53.33333206px;font-family:sans-serif;-inkscape-font-specification:'sans-serif, Normal';font-variant-ligatures:normal;font-variant-caps:normal;font-variant-numeric:normal;font-feature-settings:normal;text-align:start;writing-mode:lr-tb;text-anchor:start"
         ry="0" /></flowRegion><flowPara
       id="flowPara892">EXMOUTHFISH.CO</flowPara></flowRoot>  <text
     xml:space="preserve"
     style="font-style:normal;font-variant:normal;font-weight:bold;font-stretch:normal;font-size:22.66721916px;line-height:1.25;font-family:'Adobe Arabic';-inkscape-font-specification:'Adobe Arabic, Bold';font-variant-ligatures:normal;font-variant-caps:normal;font-variant-numeric:normal;font-feature-settings:normal;text-align:start;letter-spacing:0px;word-spacing:0px;writing-mode:lr-tb;text-anchor:start;fill:#ffffff;fill-opacity:1;stroke:none"
     id="text910"
     transform="matrix(1.0890476,0,0,1.343645,37.235411,-46.324757)"><textPath
       xlink:href="#path882"
       id="textPath912"><tspan
   id="tspan908"
   style="font-style:normal;font-variant:normal;font-weight:bold;font-stretch:normal;font-size:22.66721916px;font-family:'Adobe Arabic';-inkscape-font-specification:'Adobe Arabic, Bold';font-variant-ligatures:normal;font-variant-caps:normal;font-variant-numeric:normal;font-feature-settings:normal;text-align:start;writing-mode:lr-tb;text-anchor:start;fill:#ffffff"><tspan
     id="tspan906"
     y="105.97396"
     x="0"
     style="font-style:normal;font-variant:normal;font-weight:bold;font-stretch:normal;font-size:22.66721916px;font-family:'Adobe Arabic';-inkscape-font-specification:'Adobe Arabic, Bold';font-variant-ligatures:normal;font-variant-caps:normal;font-variant-numeric:normal;font-feature-settings:normal;text-align:start;writing-mode:lr-tb;text-anchor:start;fill:#ffffff">EXMOUTHFISH.CO</tspan></tspan></textPath></text>
</svg>
