<?xml version="1.0" encoding="UTF-8" standalone="no"?>
<!-- Created with Inkscape (http://www.inkscape.org/) -->

<svg
   xmlns:dc="http://purl.org/dc/elements/1.1/"
   xmlns:cc="http://creativecommons.org/ns#"
   xmlns:rdf="http://www.w3.org/1999/02/22-rdf-syntax-ns#"
   xmlns:svg="http://www.w3.org/2000/svg"
   xmlns="http://www.w3.org/2000/svg"
   xmlns:sodipodi="http://sodipodi.sourceforge.net/DTD/sodipodi-0.dtd"
   xmlns:inkscape="http://www.inkscape.org/namespaces/inkscape"
   width="210mm"
   height="297mm"
   id="svg2"
   version="1.1"
   inkscape:version="0.92.3 (2405546, 2018-03-11)"
   sodipodi:docname="logo20.svg">
  <defs
     id="defs4" />
  <sodipodi:namedview
     id="base"
     pagecolor="#ffffff"
     bordercolor="#666666"
     borderopacity="1.0"
     inkscape:pageopacity="0.0"
     inkscape:pageshadow="2"
     inkscape:zoom="0.2245064"
     inkscape:cx="230.96176"
     inkscape:cy="714.7608"
     inkscape:document-units="px"
     inkscape:current-layer="layer1"
     showgrid="false"
     inkscape:window-width="1366"
     inkscape:window-height="705"
     inkscape:window-x="-8"
     inkscape:window-y="-8"
     inkscape:window-maximized="1"
     inkscape:snap-global="false"
     showguides="false" />
  <metadata
     id="metadata7">
    <rdf:RDF>
      <cc:Work
         rdf:about="">
        <dc:format>image/svg+xml</dc:format>
        <dc:type
           rdf:resource="http://purl.org/dc/dcmitype/StillImage" />
        <dc:title></dc:title>
      </cc:Work>
    </rdf:RDF>
  </metadata>
  <g
     inkscape:label="Capa 1"
     inkscape:groupmode="layer"
     id="layer1">
    <g
       id="g868">
      <path
         d="m 546.84375,49.65625 c -51.49621,0 -93.5625,42.066301 -93.5625,93.5625 0,3.33943 0.29337,7.21559 0.875,11.75 a 45.776386,45.776386 0 0 1 -56.8125,50.15625 c -15.80994,-4.06684 -32.31397,-6.25 -49.34375,-6.25 -34.59253,0 -66.96602,8.99438 -95.5,24.75 a 45.776386,45.776386 0 0 1 -66.1875,-27.65625 c -5.12132,-18.17629 -22.1556,-32.15625 -42.03125,-32.15625 -23.93463,0 -43.71875,19.74247 -43.71875,43.6875 0,20.90727 15.47516,38.71706 34.9375,42.8125 a 45.776386,45.776386 0 0 1 32.0625,64.09375 c -11.84425,25.46162 -18.46875,53.6152 -18.46875,83.40625 0,19.58634 2.91665,38.48507 8.28125,56.46875 A 45.776386,45.776386 0 0 1 105.15625,512.375 c -4.54414,-0.84148 -8.853553,-1.25 -13.0625,-1.25 -40.693367,0 -74.03125,33.33788 -74.03125,74.03125 0,40.69337 33.337883,74.03125 74.03125,74.03125 37.52402,0 68.74047,-28.68759 73.34375,-64.78125 a 45.776386,45.776386 0 0 1 71.15625,-32.0625 c 31.92321,21.71139 70.09659,34.375 111.40625,34.375 31.47669,0 61.0873,-7.4103 87.65625,-20.5625 a 45.776386,45.776386 0 0 1 65.28125,49.53125 c -1.28139,6.79227 -1.9375,13.36302 -1.9375,19.875 0,59.58445 48.60305,108.1875 108.1875,108.1875 59.58445,0 108.1875,-48.60305 108.1875,-108.1875 0,-59.58721 -48.59792,-108.21875 -108.1875,-108.21875 -8.23861,0 -16.35739,1.02831 -24.5,2.96875 a 45.776386,45.776386 0 0 1 -52.53125,-62.96875 c 10.75953,-24.46018 16.75,-51.23601 16.75,-79.53125 0,-34.14755 -8.70681,-66.18881 -24.03125,-94.4375 a 45.776386,45.776386 0 0 1 34.84375,-67.28125 c 46.12631,-5.44567 82.71875,-45.07816 82.71875,-92.875 0,-51.502543 -42.09426,-93.5625 -93.59375,-93.5625 z"
         id="path3786"
         style="fill:#ff7f00;fill-opacity:1;fill-rule:evenodd;stroke:#000000;stroke-width:0.67463142px;stroke-linecap:butt;stroke-linejoin:miter;stroke-opacity:1"
         inkscape:original="M 546.84375 3.875 C 470.30696 3.875 407.5 66.68197 407.5 143.21875 C 407.5 149.17248 408.01008 155.01281 408.75 160.78125 C 389.30212 155.77861 368.9419 153.09375 348 153.09375 C 305.40634 153.09375 265.32869 164.26211 230.375 183.5625 C 219.77865 145.95454 185.05455 118.03125 144.28125 118.03125 C 95.22716 118.03125 54.78125 158.4124 54.78125 207.5 C 54.78125 250.34562 85.585004 286.57612 126.0625 295.09375 C 111.5132 326.37042 103.3125 361.18872 103.3125 397.8125 C 103.3125 421.95303 106.91539 445.30149 113.5 467.375 C 106.54126 466.08639 99.403041 465.34375 92.09375 465.34375 C 26.325467 465.34375 -27.71875 519.38796 -27.71875 585.15625 C -27.71875 650.92454 26.325467 704.96875 92.09375 704.96875 C 152.76444 704.96875 203.3497 658.94727 210.84375 600.1875 C 250.01768 626.8302 297.26563 642.5 348 642.5 C 386.70483 642.5 423.35545 633.33178 455.96875 617.1875 C 454.22856 626.4117 453.21875 635.87103 453.21875 645.5625 C 453.21875 730.16564 522.58436 799.53125 607.1875 799.53125 C 691.79064 799.53125 761.15625 730.16564 761.15625 645.5625 C 761.15625 560.96087 691.80372 491.5625 607.1875 491.5625 C 595.09809 491.5625 583.36357 493.08813 572.0625 495.78125 C 585.27707 465.73991 592.6875 432.60669 592.6875 397.8125 C 592.6875 355.81691 581.88665 316.20486 563.09375 281.5625 C 632.07768 273.41826 686.21875 214.26825 686.21875 143.21875 C 686.21875 66.667215 623.37858 3.875 546.84375 3.875 z "
         inkscape:radius="-45.771809"
         sodipodi:type="inkscape:offset" />
      <path
         transform="matrix(1.0403445,0,0,1.0403445,-13.872057,-8.440962)"
         d="m 473.42786,395.78342 a 129.58792,129.58792 0 1 1 -259.17585,0 129.58792,129.58792 0 1 1 259.17585,0 z"
         sodipodi:ry="129.58792"
         sodipodi:rx="129.58792"
         sodipodi:cy="395.78342"
         sodipodi:cx="343.83994"
         id="path3792"
         style="fill:#ffffff;fill-opacity:1;stroke:none"
         sodipodi:type="arc" />
      <path
         id="path3794"
         d="M 343.83984 309.96289 C 292.28542 309.96306 250.49235 351.75613 250.49219 403.31055 C 250.49236 454.86497 292.28542 496.65803 343.83984 496.6582 C 354.87539 482.55067 345.59954 495.65039 346.26758 494.91016 C 355.89497 484.24246 367.74219 457.53125 367.74219 457.53125 C 367.74219 457.53125 352.23788 462.50893 344.0957 462.5332 C 311.38341 462.53369 284.86474 436.01502 284.86523 403.30273 C 284.86583 370.59121 311.38418 344.07373 344.0957 344.07422 C 363.44708 344.10192 381.56465 353.58107 392.62109 369.46289 L 393.24414 481.54688 L 419.86328 464.23438 L 428.00977 458.93555 L 428.00977 365.93555 L 427.99414 365.93555 L 427.99414 363.14648 C 412.56581 330.76916 379.87299 310.00217 343.83984 309.96289 z "
         style="fill:#656565;fill-opacity:1;stroke:none;stroke-width:0.72034454;stroke-opacity:1" />
    </g>
  </g>
</svg>
