<?xml version="1.0" encoding="UTF-8" standalone="no"?>
<!-- Created with Inkscape (http://www.inkscape.org/) -->

<svg
   xmlns:dc="http://purl.org/dc/elements/1.1/"
   xmlns:cc="http://creativecommons.org/ns#"
   xmlns:rdf="http://www.w3.org/1999/02/22-rdf-syntax-ns#"
   xmlns:svg="http://www.w3.org/2000/svg"
   xmlns="http://www.w3.org/2000/svg"
   xmlns:sodipodi="http://sodipodi.sourceforge.net/DTD/sodipodi-0.dtd"
   xmlns:inkscape="http://www.inkscape.org/namespaces/inkscape"
   width="210mm"
   height="297mm"
   id="svg2"
   version="1.1"
   inkscape:version="0.92.3 (2405546, 2018-03-11)"
   sodipodi:docname="LOGO20.svg">
  <defs
     id="defs4" />
  <sodipodi:namedview
     id="base"
     pagecolor="#ffffff"
     bordercolor="#666666"
     borderopacity="1.0"
     inkscape:pageopacity="0.0"
     inkscape:pageshadow="2"
     inkscape:zoom="0.61580177"
     inkscape:cx="583.72544"
     inkscape:cy="706.05911"
     inkscape:document-units="px"
     inkscape:current-layer="layer1"
     showgrid="false"
     inkscape:window-width="1366"
     inkscape:window-height="705"
     inkscape:window-x="-8"
     inkscape:window-y="-8"
     inkscape:window-maximized="1"
     inkscape:snap-global="true"
     inkscape:measure-start="0,0"
     inkscape:measure-end="0,0" />
  <metadata
     id="metadata7">
    <rdf:RDF>
      <cc:Work
         rdf:about="">
        <dc:format>image/svg+xml</dc:format>
        <dc:type
           rdf:resource="http://purl.org/dc/dcmitype/StillImage" />
        <dc:title></dc:title>
      </cc:Work>
    </rdf:RDF>
  </metadata>
  <g
     inkscape:label="Capa 1"
     inkscape:groupmode="layer"
     id="layer1">
    <g
       id="g4544"
       transform="translate(37.349681,-4.8716976)">
      <path
         id="path3812"
         d="m 422.65625,190.88867 c -32.76136,0 -60.15493,26.95016 -61.09375,59.49024 a 31.547678,31.547678 0 0 1 -41.36328,29.0625 c -11.07619,-3.63338 -22.70951,-5.61524 -34.79297,-5.61524 -6.14016,0 -12.39035,0.61831 -18.88672,1.73242 a 31.547678,31.547678 0 0 1 -36.56836,-35.48242 c 0.24907,-1.7713 0.34766,-3.16904 0.34766,-4.29492 0,-17.46675 -15.26227,-32.79883 -32.76758,-32.79883 -17.54343,0 -32.79883,15.2554 -32.79883,32.79883 0,13.31621 8.94134,25.49867 20.91797,30.39258 a 31.547678,31.547678 0 0 1 12.42578,49.24609 c -15.96402,19.39773 -25.55615,43.82075 -25.80078,70.53516 0.005,0.17527 0.0112,0.67695 0.0176,1.72656 a 31.547678,31.547678 0 0 1 -36.03711,31.41602 c -2.65591,-0.38235 -4.74906,-0.55274 -6.38086,-0.55274 -25.14311,0 -46.455078,21.31197 -46.455078,46.45508 0,25.14311 21.311968,46.45508 46.455078,46.45508 17.2596,0 32.81003,-10.06732 40.79688,-24.5918 a 31.547678,31.547678 0 0 1 46.73828,-9.90625 c 19.16492,14.57927 42.52637,23.18555 67.99609,23.18555 11.02994,0 21.67109,-1.65546 31.91602,-4.71289 a 31.547678,31.547678 0 0 1 40.29296,34.36719 c -0.49432,3.7332 -0.75781,7.10153 -0.75781,10.20312 0,43.3401 35.83373,79.17383 79.17383,79.17383 43.33259,0 79.14258,-35.85076 79.14258,-79.17383 0,-43.31556 -35.82702,-79.14258 -79.14258,-79.14258 -2.86515,0 -5.83351,0.18713 -8.92383,0.54297 a 31.547678,31.547678 0 0 1 -33.68945,-40.82812 c 3.35628,-10.63853 5.16211,-21.85558 5.16211,-33.57227 0,-11.47671 -1.73061,-22.50484 -4.94336,-32.92383 a 31.547678,31.547678 0 0 1 29.7539,-40.83789 c 33.00991,-0.40846 60.47071,-28.04664 60.47071,-61.14453 0,-33.35219 -27.85289,-61.20508 -61.20508,-61.20508 z M 172.27539,385.95508 c -0.006,-0.20423 -0.0117,0.0736 -0.0117,1.04492 0,-0.34936 0.009,-0.69634 0.0117,-1.04492 z m 114.72852,-78.82031 a 83.63234,79.996149 0 0 1 83.63281,79.99609 83.63234,79.996149 0 0 1 -83.63281,79.99609 83.63234,79.996149 0 0 1 -83.63282,-79.99609 83.63234,79.996149 0 0 1 83.63282,-79.99609 z"
         style="fill:#ff8900;fill-opacity:1;fill-rule:evenodd;stroke:none;stroke-width:0.64187568px;stroke-linecap:butt;stroke-linejoin:miter;stroke-opacity:1"
         inkscape:connector-curvature="0" />
      <path
         sodipodi:nodetypes="ccccccccccccccc"
         inkscape:connector-curvature="0"
         id="path3816"
         d="m 287.00391,339.23047 c -27.65739,-4.2e-4 -50.07832,21.44549 -50.07813,47.90039 0.0311,24.09198 18.76477,44.41299 43.75,47.45703 19.09406,-0.22884 22.12078,-21.20277 10.95703,-21.44141 -1.52829,0.25958 -3.07674,0.39548 -4.6289,0.40625 -15.25589,4.1e-4 -27.62338,-11.82928 -27.62305,-26.42187 -3.3e-4,-14.5926 12.36715,-26.42229 27.62305,-26.42188 7.92666,0.0127 15.46561,3.28212 20.69921,8.97657 v 52.0664 h 0.0469 v 8.92188 c 9.4271,-4.11767 17.28641,-10.93153 22.49414,-19.50195 v -48.10547 c -8.95275,-14.73861 -25.41961,-23.81587 -43.24023,-23.83594 z"
         style="fill:#454e5b;fill-opacity:1;stroke:none;stroke-width:1.03425562" />
    </g>
  </g>
</svg>
