<?xml version="1.0" encoding="UTF-8" standalone="no"?>
<!-- Created with Inkscape (http://www.inkscape.org/) -->

<svg
   xmlns:dc="http://purl.org/dc/elements/1.1/"
   xmlns:cc="http://creativecommons.org/ns#"
   xmlns:rdf="http://www.w3.org/1999/02/22-rdf-syntax-ns#"
   xmlns:svg="http://www.w3.org/2000/svg"
   xmlns="http://www.w3.org/2000/svg"
   xmlns:sodipodi="http://sodipodi.sourceforge.net/DTD/sodipodi-0.dtd"
   xmlns:inkscape="http://www.inkscape.org/namespaces/inkscape"
   id="svg8"
   version="1.1"
   viewBox="0 0 210 297"
   height="297mm"
   width="210mm"
   inkscape:version="0.92.3 (2405546, 2018-03-11)"
   sodipodi:docname="logo19.svg">
  <sodipodi:namedview
     inkscape:window-maximized="1"
     inkscape:window-y="-8"
     inkscape:window-x="-8"
     inkscape:window-height="705"
     inkscape:window-width="1366"
     showgrid="false"
     inkscape:current-layer="layer1"
     inkscape:document-units="mm"
     inkscape:cy="814.71953"
     inkscape:cx="221.75155"
     inkscape:zoom="0.26994411"
     inkscape:pageshadow="2"
     inkscape:pageopacity="0.0"
     borderopacity="1.0"
     bordercolor="#666666"
     pagecolor="#ffffff"
     id="base" />
  <defs
     id="defs2" />
  <metadata
     id="metadata5">
    <rdf:RDF>
      <cc:Work
         rdf:about="">
        <dc:format>image/svg+xml</dc:format>
        <dc:type
           rdf:resource="http://purl.org/dc/dcmitype/StillImage" />
        <dc:title></dc:title>
      </cc:Work>
    </rdf:RDF>
  </metadata>
  <g
     id="layer1"
     inkscape:groupmode="layer"
     inkscape:label="Capa 1">
    <path
       inkscape:connector-curvature="0"
       id="path828"
       d="m 125.27898,132.53074 c -0.47062,-0.13 -0.91008,0.1173 -1.1097,0.63393 0,0 -4.68244,11.62029 -4.68244,11.62029 0,0 -6.71114,-13.98403 -6.71114,-13.98403 -0.33858,-0.70516 -1.00497,-1.24289 -1.73482,-1.38765 -0.74755,-0.14827 -1.43358,0.14026 -1.76267,0.75485 0,0 -8.17465,15.26736 -8.17465,15.26736 0,0 -12.337457,-18.56006 -12.337457,-18.56006 -0.74503,-1.1206 -2.275117,-1.97988 -3.880641,-2.14727 -1.666645,-0.17376 -3.053339,0.43272 -3.432217,1.53716 0,0 -4.455124,13.04894 -4.455124,13.04894 0,0 -5.968462,-15.08926 -5.968462,-15.08926 -0.631296,-1.58937 -2.927479,-3.07603 -5.634919,-3.58392 -2.851353,-0.5349 -5.378877,0.15404 -5.956406,1.6976 0,0 -12.312714,33.01875 -12.312714,33.01875 -0.620481,1.51215 0.38419,2.89031 2.569731,3.57093 2.111658,0.65762 4.940103,0.54078 7.368641,-0.25993 2.330069,-0.76824 3.970738,-2.06227 4.362962,-3.39996 0,0 5.044857,-15.43152 5.044857,-15.43152 0,0 6.11452,14.02438 6.11452,14.02438 0.604221,1.37966 2.667917,2.10342 4.90535,1.77662 2.137004,-0.31212 3.890383,-1.50901 4.317053,-2.89399 0,0 5.280174,-17.21629 5.280174,-17.21629 0,0 11.838557,16.33834 11.838557,16.33834 0.518062,0.71464 1.484735,1.05316 2.488855,0.88928 0.97661,-0.15939 1.82879,-0.76903 2.22722,-1.57616 0,0 7.60517,-15.43236 7.60517,-15.43236 0,0 7.02487,13.7711 7.02487,13.7711 0.27994,0.54878 0.81092,0.83556 1.3679,0.74855 0.54552,-0.0852 1.02529,-0.51546 1.25,-1.11124 0,0 5.38795,-14.25661 5.38795,-14.25661 0.16448,-0.41804 0.1444,-0.95385 -0.0535,-1.42741 -0.1995,-0.47731 -0.55488,-0.8323 -0.94692,-0.94037 0,0 0,-5e-5 0,-5e-5"
       style="color:#000000;font-style:normal;font-variant:normal;font-weight:normal;font-stretch:normal;font-size:medium;line-height:normal;font-family:sans-serif;font-variant-ligatures:normal;font-variant-position:normal;font-variant-caps:normal;font-variant-numeric:normal;font-variant-alternates:normal;font-feature-settings:normal;text-indent:0;text-align:start;text-decoration:none;text-decoration-line:none;text-decoration-style:solid;text-decoration-color:#000000;letter-spacing:normal;word-spacing:normal;text-transform:none;writing-mode:lr-tb;direction:ltr;text-orientation:mixed;dominant-baseline:auto;baseline-shift:baseline;text-anchor:start;white-space:normal;shape-padding:0;clip-rule:nonzero;display:inline;overflow:visible;visibility:visible;opacity:1;isolation:auto;mix-blend-mode:normal;color-interpolation:sRGB;color-interpolation-filters:linearRGB;solid-color:#000000;solid-opacity:1;vector-effect:none;fill:#000000;fill-opacity:1;fill-rule:nonzero;stroke:none;stroke-width:4.49580002;stroke-linecap:round;stroke-linejoin:round;stroke-miterlimit:4;stroke-dasharray:none;stroke-dashoffset:0;stroke-opacity:1;color-rendering:auto;image-rendering:auto;shape-rendering:auto;text-rendering:auto;enable-background:accumulate" />
  </g>
</svg>
